<svg width="36" height="24" viewBox="0 0 36 24" fill="none" xmlns="http://www.w3.org/2000/svg">
<path d="M35.3792 23.5862H0.620718C0.277945 23.5862 0 23.3083 0 22.9655V0.620717C0 0.277944 0.277945 0 0.620718 0H35.3793C35.7221 0 36 0.277944 36 0.620717V22.9655C35.9999 23.3083 35.722 23.5862 35.3792 23.5862Z" fill="#F5F5F5"/>
<path d="M35.9999 1.81441H0V0.620717C0 0.277944 0.277945 0 0.620718 0H35.3793C35.7221 0 36 0.277944 36 0.620717L35.9999 1.81441Z" fill="#FF4B55"/>
<path d="M35.9999 7.25729H0V9.07163H35.9999V7.25729Z" fill="#FF4B55"/>
<path d="M35.9999 3.62846H0V5.4428H35.9999V3.62846Z" fill="#FF4B55"/>
<path d="M35.9999 12.7003H0.620718C0.277945 12.7003 0 12.4224 0 12.0796V10.8859H35.9999V12.7003Z" fill="#FF4B55"/>
<path d="M35.9999 18.1438H0V19.9581H35.9999V18.1438Z" fill="#FF4B55"/>
<path d="M35.3792 23.5862H0.620718C0.277945 23.5862 0 23.3083 0 22.9655V21.7719H35.9999V22.9656C35.9999 23.3083 35.722 23.5862 35.3792 23.5862Z" fill="#FF4B55"/>
<path d="M35.9999 14.5149H0V16.3293H35.9999V14.5149Z" fill="#FF4B55"/>
<path d="M16.1379 7.62939e-05H0.620718C0.277945 7.62939e-05 0 0.27795 0 0.620723V12.0795C0 12.4223 0.277945 12.7002 0.620718 12.7002H16.138C16.4807 12.7002 16.7587 12.4223 16.7587 12.0795V0.620723C16.7586 0.27795 16.4807 7.62939e-05 16.1379 7.62939e-05Z" fill="#41479B"/>
<path d="M1.74303 1.4248L1.88042 1.83683L2.31474 1.84013C2.37099 1.84062 2.39427 1.91234 2.34906 1.94574L1.99967 2.20379L2.13074 2.61786C2.14775 2.67144 2.08665 2.71587 2.04088 2.68311L1.68756 2.43062L1.33424 2.68318C1.28846 2.71587 1.2275 2.67151 1.24438 2.61793L1.37544 2.20386L1.02606 1.94581C0.980848 1.91234 1.00412 1.84069 1.06037 1.8402L1.49469 1.8369L1.63208 1.42487C1.6498 1.37143 1.72517 1.37143 1.74303 1.4248Z" fill="#F5F5F5"/>
<path d="M1.74303 3.58002L1.88042 3.99205L2.31474 3.99535C2.37099 3.99585 2.39427 4.06756 2.34906 4.10096L1.99967 4.35901L2.13074 4.77308C2.14775 4.82666 2.08665 4.87109 2.04088 4.83833L1.68756 4.58584L1.33424 4.8384C1.28846 4.87109 1.2275 4.82673 1.24438 4.77315L1.37544 4.35908L1.02606 4.10103C0.980848 4.06756 1.00412 3.99592 1.06037 3.99542L1.49469 3.99212L1.63208 3.58009C1.6498 3.52672 1.72517 3.52672 1.74303 3.58002Z" fill="#F5F5F5"/>
<path d="M1.74303 5.73538L1.88042 6.14741L2.31474 6.15072C2.37099 6.15121 2.39427 6.22293 2.34906 6.25633L1.99967 6.51437L2.13074 6.92844C2.14775 6.98202 2.08665 7.02646 2.04088 6.99369L1.68756 6.7412L1.33424 6.99376C1.28846 7.02646 1.2275 6.98209 1.24438 6.92851L1.37544 6.51444L1.02606 6.2564C0.980848 6.22293 1.00412 6.15128 1.06037 6.15079L1.49469 6.14748L1.63208 5.73545C1.6498 5.68209 1.72517 5.68209 1.74303 5.73538Z" fill="#F5F5F5"/>
<path d="M1.74303 7.8908L1.88042 8.30283L2.31474 8.30614C2.37099 8.30663 2.39427 8.37835 2.34906 8.41175L1.99967 8.66979L2.13074 9.08386C2.14775 9.13744 2.08665 9.18188 2.04088 9.14911L1.68756 8.89662L1.33424 9.14918C1.28846 9.18188 1.2275 9.13751 1.24438 9.08393L1.37544 8.66986L1.02606 8.41181C0.980848 8.37835 1.00412 8.3067 1.06037 8.30621L1.49469 8.3029L1.63208 7.89087C1.6498 7.83743 1.72517 7.83743 1.74303 7.8908Z" fill="#F5F5F5"/>
<path d="M1.74303 10.0462L1.88042 10.4582L2.31474 10.4615C2.37099 10.462 2.39427 10.5337 2.34906 10.5671L1.99967 10.8251L2.13074 11.2392C2.14775 11.2928 2.08665 11.3372 2.04088 11.3045L1.68756 11.052L1.33424 11.3045C1.28846 11.3372 1.2275 11.2929 1.24438 11.2393L1.37544 10.8252L1.02606 10.5672C0.980848 10.5337 1.00412 10.4621 1.06037 10.4616L1.49469 10.4583L1.63208 10.0462C1.6498 9.99272 1.72517 9.99272 1.74303 10.0462Z" fill="#F5F5F5"/>
<path d="M3.41601 2.48139L3.5534 2.89342L3.98772 2.89673C4.04397 2.89722 4.06724 2.96894 4.02203 3.00234L3.67265 3.26038L3.80371 3.67445C3.82073 3.72803 3.75962 3.77247 3.71385 3.7397L3.36053 3.48714L3.00721 3.7397C2.96144 3.7724 2.90048 3.72803 2.91735 3.67445L3.04841 3.26038L2.69903 3.00234C2.65382 2.96887 2.67709 2.89722 2.73334 2.89673L3.16766 2.89342L3.30505 2.48139C3.3227 2.4281 3.39822 2.4281 3.41601 2.48139Z" fill="#F5F5F5"/>
<path d="M3.41601 4.63683L3.5534 5.04886L3.98772 5.05216C4.04397 5.05265 4.06724 5.12437 4.02203 5.15777L3.67265 5.41582L3.80371 5.82989C3.82073 5.88347 3.75962 5.9279 3.71385 5.89514L3.36053 5.64258L3.00721 5.89514C2.96144 5.92783 2.90048 5.88354 2.91735 5.82989L3.04841 5.41582L2.69903 5.15777C2.65382 5.1243 2.67709 5.05265 2.73334 5.05216L3.16766 5.04886L3.30505 4.63683C3.3227 4.58346 3.39822 4.58346 3.41601 4.63683Z" fill="#F5F5F5"/>
<path d="M3.41601 6.79218L3.5534 7.20421L3.98772 7.20751C4.04397 7.208 4.06724 7.27972 4.02203 7.31312L3.67265 7.57117L3.80371 7.98524C3.82073 8.03881 3.75962 8.08325 3.71385 8.05049L3.36053 7.79792L3.00721 8.05049C2.96144 8.08318 2.90048 8.03881 2.91735 7.98524L3.04841 7.57117L2.69903 7.31312C2.65382 7.27965 2.67709 7.208 2.73334 7.20751L3.16766 7.20421L3.30505 6.79218C3.3227 6.73881 3.39822 6.73881 3.41601 6.79218Z" fill="#F5F5F5"/>
<path d="M3.41601 8.94753L3.5534 9.35957L3.98772 9.36287C4.04397 9.36336 4.06724 9.43508 4.02203 9.46848L3.67265 9.72653L3.80371 10.1406C3.82073 10.1942 3.75962 10.2386 3.71385 10.2058L3.36053 9.95328L3.00721 10.2058C2.96144 10.2385 2.90048 10.1942 2.91735 10.1406L3.04841 9.72653L2.69903 9.46848C2.65382 9.43501 2.67709 9.36336 2.73334 9.36287L3.16766 9.35957L3.30505 8.94753C3.3227 8.89424 3.39822 8.89424 3.41601 8.94753Z" fill="#F5F5F5"/>
<path d="M5.08886 1.42467L5.22625 1.8367L5.66057 1.84C5.71682 1.8405 5.74009 1.91221 5.69488 1.94561L5.3455 2.20366L5.47656 2.61773C5.49358 2.67131 5.43248 2.71574 5.3867 2.68298L5.03338 2.43042L4.68006 2.68298C4.63429 2.71567 4.57333 2.67131 4.5902 2.61773L4.72127 2.20366L4.37188 1.94561C4.32667 1.91214 4.34995 1.8405 4.4062 1.84L4.84052 1.8367L4.97791 1.42467C4.99562 1.3713 5.07107 1.3713 5.08886 1.42467Z" fill="#F5F5F5"/>
<path d="M5.08886 3.58003L5.22625 3.99206L5.66057 3.99536C5.71682 3.99585 5.74009 4.06757 5.69488 4.10097L5.3455 4.35902L5.47656 4.77309C5.49358 4.82667 5.43248 4.8711 5.3867 4.83834L5.03338 4.58578L4.68006 4.83834C4.63429 4.87103 4.57333 4.82667 4.5902 4.77309L4.72127 4.35902L4.37188 4.10097C4.32667 4.0675 4.34995 3.99585 4.4062 3.99536L4.84052 3.99206L4.97791 3.58003C4.99562 3.52673 5.07107 3.52673 5.08886 3.58003Z" fill="#F5F5F5"/>
<path d="M5.08886 5.73538L5.22625 6.14741L5.66057 6.15071C5.71682 6.1512 5.74009 6.22292 5.69488 6.25632L5.3455 6.51437L5.47656 6.92844C5.49358 6.98202 5.43248 7.02645 5.3867 6.99369L5.03338 6.74112L4.68006 6.99369C4.63429 7.02638 4.57333 6.98202 4.5902 6.92844L4.72127 6.51437L4.37188 6.25632C4.32667 6.22285 4.34995 6.1512 4.4062 6.15071L4.84052 6.14741L4.97791 5.73538C4.99562 5.68208 5.07107 5.68208 5.08886 5.73538Z" fill="#F5F5F5"/>
<path d="M5.08886 7.89081L5.22625 8.30284L5.66057 8.30614C5.71682 8.30664 5.74009 8.37836 5.69488 8.41175L5.3455 8.6698L5.47656 9.08387C5.49358 9.13745 5.43248 9.18189 5.3867 9.14912L5.03338 8.89656L4.68006 9.14912C4.63429 9.18181 4.57333 9.13745 4.5902 9.08387L4.72127 8.6698L4.37188 8.41175C4.32667 8.37828 4.34995 8.30664 4.4062 8.30614L4.84052 8.30284L4.97791 7.89081C4.99562 7.83744 5.07107 7.83744 5.08886 7.89081Z" fill="#F5F5F5"/>
<path d="M5.08886 10.0462L5.22625 10.4582L5.66057 10.4615C5.71682 10.462 5.74009 10.5337 5.69488 10.5671L5.3455 10.8252L5.47656 11.2392C5.49358 11.2928 5.43248 11.3372 5.3867 11.3045L5.03338 11.0519L4.68006 11.3045C4.63429 11.3372 4.57333 11.2928 4.5902 11.2392L4.72127 10.8252L4.37188 10.5671C4.32667 10.5336 4.34995 10.462 4.4062 10.4615L4.84052 10.4582L4.97791 10.0462C4.99562 9.99273 5.07107 9.99273 5.08886 10.0462Z" fill="#F5F5F5"/>
<path d="M6.76195 2.48139L6.89934 2.89342L7.33366 2.89673C7.38991 2.89722 7.41319 2.96894 7.36798 3.00234L7.01859 3.26038L7.14966 3.67445C7.16667 3.72803 7.10557 3.77247 7.0598 3.7397L6.70648 3.48714L6.35316 3.7397C6.30739 3.7724 6.24642 3.72803 6.2633 3.67445L6.39436 3.26038L6.04498 3.00234C5.99977 2.96887 6.02304 2.89722 6.07929 2.89673L6.51361 2.89342L6.651 2.48139C6.66865 2.4281 6.74417 2.4281 6.76195 2.48139Z" fill="#F5F5F5"/>
<path d="M6.76195 4.63683L6.89934 5.04886L7.33366 5.05216C7.38991 5.05265 7.41319 5.12437 7.36798 5.15777L7.01859 5.41582L7.14966 5.82989C7.16667 5.88347 7.10557 5.9279 7.0598 5.89514L6.70648 5.64258L6.35316 5.89514C6.30739 5.92783 6.24642 5.88354 6.2633 5.82989L6.39436 5.41582L6.04498 5.15777C5.99977 5.1243 6.02304 5.05265 6.07929 5.05216L6.51361 5.04886L6.651 4.63683C6.66865 4.58346 6.74417 4.58346 6.76195 4.63683Z" fill="#F5F5F5"/>
<path d="M6.76195 6.79218L6.89934 7.20421L7.33366 7.20751C7.38991 7.208 7.41319 7.27972 7.36798 7.31312L7.01859 7.57117L7.14966 7.98524C7.16667 8.03881 7.10557 8.08325 7.0598 8.05049L6.70648 7.79792L6.35316 8.05049C6.30739 8.08318 6.24642 8.03881 6.2633 7.98524L6.39436 7.57117L6.04498 7.31312C5.99977 7.27965 6.02304 7.208 6.07929 7.20751L6.51361 7.20421L6.651 6.79218C6.66865 6.73881 6.74417 6.73881 6.76195 6.79218Z" fill="#F5F5F5"/>
<path d="M6.76195 8.94753L6.89934 9.35957L7.33366 9.36287C7.38991 9.36336 7.41319 9.43508 7.36798 9.46848L7.01859 9.72653L7.14966 10.1406C7.16667 10.1942 7.10557 10.2386 7.0598 10.2058L6.70648 9.95328L6.35316 10.2058C6.30739 10.2385 6.24642 10.1942 6.2633 10.1406L6.39436 9.72653L6.04498 9.46848C5.99977 9.43501 6.02304 9.36336 6.07929 9.36287L6.51361 9.35957L6.651 8.94753C6.66865 8.89424 6.74417 8.89424 6.76195 8.94753Z" fill="#F5F5F5"/>
<path d="M8.43488 1.42467L8.57227 1.8367L9.00659 1.84C9.06284 1.8405 9.08611 1.91221 9.0409 1.94561L8.69152 2.20366L8.82258 2.61773C8.83959 2.67131 8.77849 2.71574 8.73272 2.68298L8.37933 2.43042L8.02601 2.68298C7.98024 2.71567 7.91928 2.67131 7.93615 2.61773L8.06721 2.20366L7.71783 1.94561C7.67262 1.91214 7.69589 1.8405 7.75214 1.84L8.18646 1.8367L8.32385 1.42467C8.34164 1.3713 8.41709 1.3713 8.43488 1.42467Z" fill="#F5F5F5"/>
<path d="M8.43488 3.58003L8.57227 3.99206L9.00659 3.99536C9.06284 3.99585 9.08611 4.06757 9.0409 4.10097L8.69152 4.35902L8.82258 4.77309C8.83959 4.82667 8.77849 4.8711 8.73272 4.83834L8.37933 4.58578L8.02601 4.83834C7.98024 4.87103 7.91928 4.82667 7.93615 4.77309L8.06721 4.35902L7.71783 4.10097C7.67262 4.0675 7.69589 3.99585 7.75214 3.99536L8.18646 3.99206L8.32385 3.58003C8.34164 3.52673 8.41709 3.52673 8.43488 3.58003Z" fill="#F5F5F5"/>
<path d="M8.43488 5.73538L8.57227 6.14741L9.00659 6.15071C9.06284 6.1512 9.08611 6.22292 9.0409 6.25632L8.69152 6.51437L8.82258 6.92844C8.83959 6.98202 8.77849 7.02645 8.73272 6.99369L8.37933 6.74112L8.02601 6.99369C7.98024 7.02638 7.91928 6.98202 7.93615 6.92844L8.06721 6.51437L7.71783 6.25632C7.67262 6.22285 7.69589 6.1512 7.75214 6.15071L8.18646 6.14741L8.32385 5.73538C8.34164 5.68208 8.41709 5.68208 8.43488 5.73538Z" fill="#F5F5F5"/>
<path d="M8.43488 7.89081L8.57227 8.30284L9.00659 8.30614C9.06284 8.30664 9.08611 8.37836 9.0409 8.41175L8.69152 8.6698L8.82258 9.08387C8.83959 9.13745 8.77849 9.18189 8.73272 9.14912L8.37933 8.89656L8.02601 9.14912C7.98024 9.18181 7.91928 9.13745 7.93615 9.08387L8.06721 8.6698L7.71783 8.41175C7.67262 8.37828 7.69589 8.30664 7.75214 8.30614L8.18646 8.30284L8.32385 7.89081C8.34164 7.83744 8.41709 7.83744 8.43488 7.89081Z" fill="#F5F5F5"/>
<path d="M8.43488 10.0462L8.57227 10.4582L9.00659 10.4615C9.06284 10.462 9.08611 10.5337 9.0409 10.5671L8.69152 10.8252L8.82258 11.2392C8.83959 11.2928 8.77849 11.3372 8.73272 11.3045L8.37933 11.0519L8.02601 11.3045C7.98024 11.3372 7.91928 11.2928 7.93615 11.2392L8.06721 10.8252L7.71783 10.5671C7.67262 10.5336 7.69589 10.462 7.75214 10.4615L8.18646 10.4582L8.32385 10.0462C8.34164 9.99273 8.41709 9.99273 8.43488 10.0462Z" fill="#F5F5F5"/>
<path d="M10.1078 2.48139L10.2452 2.89342L10.6795 2.89673C10.7357 2.89722 10.759 2.96894 10.7138 3.00234L10.3644 3.26038L10.4955 3.67445C10.5125 3.72803 10.4514 3.77247 10.4056 3.7397L10.0523 3.48714L9.69898 3.7397C9.65321 3.7724 9.59225 3.72803 9.60912 3.67445L9.74019 3.26038L9.3908 3.00234C9.34559 2.96887 9.36887 2.89722 9.42512 2.89673L9.85944 2.89342L9.99683 2.48139C10.0146 2.4281 10.09 2.4281 10.1078 2.48139Z" fill="#F5F5F5"/>
<path d="M10.1078 4.63683L10.2452 5.04886L10.6795 5.05216C10.7357 5.05265 10.759 5.12437 10.7138 5.15777L10.3644 5.41582L10.4955 5.82989C10.5125 5.88347 10.4514 5.9279 10.4056 5.89514L10.0523 5.64258L9.69898 5.89514C9.65321 5.92783 9.59225 5.88354 9.60912 5.82989L9.74019 5.41582L9.3908 5.15777C9.34559 5.1243 9.36887 5.05265 9.42512 5.05216L9.85944 5.04886L9.99683 4.63683C10.0146 4.58346 10.09 4.58346 10.1078 4.63683Z" fill="#F5F5F5"/>
<path d="M10.1078 6.79218L10.2452 7.20421L10.6795 7.20751C10.7357 7.208 10.759 7.27972 10.7138 7.31312L10.3644 7.57117L10.4955 7.98524C10.5125 8.03881 10.4514 8.08325 10.4056 8.05049L10.0523 7.79792L9.69898 8.05049C9.65321 8.08318 9.59225 8.03881 9.60912 7.98524L9.74019 7.57117L9.3908 7.31312C9.34559 7.27965 9.36887 7.208 9.42512 7.20751L9.85944 7.20421L9.99683 6.79218C10.0146 6.73881 10.09 6.73881 10.1078 6.79218Z" fill="#F5F5F5"/>
<path d="M10.1078 8.94753L10.2452 9.35957L10.6795 9.36287C10.7357 9.36336 10.759 9.43508 10.7138 9.46848L10.3644 9.72653L10.4955 10.1406C10.5125 10.1942 10.4514 10.2386 10.4056 10.2058L10.0523 9.95328L9.69898 10.2058C9.65321 10.2385 9.59225 10.1942 9.60912 10.1406L9.74019 9.72653L9.3908 9.46848C9.34559 9.43501 9.36887 9.36336 9.42512 9.36287L9.85944 9.35957L9.99683 8.94753C10.0146 8.89424 10.09 8.89424 10.1078 8.94753Z" fill="#F5F5F5"/>
<path d="M11.7809 1.42467L11.9183 1.8367L12.3526 1.84C12.4088 1.8405 12.4321 1.91221 12.3869 1.94561L12.0375 2.20366L12.1686 2.61773C12.1856 2.67131 12.1245 2.71574 12.0787 2.68298L11.7254 2.43042L11.3721 2.68298C11.3263 2.71567 11.2653 2.67131 11.2822 2.61773L11.4133 2.20366L11.0639 1.94561C11.0187 1.91214 11.042 1.8405 11.0982 1.84L11.5325 1.8367L11.6699 1.42467C11.6876 1.3713 11.7631 1.3713 11.7809 1.42467Z" fill="#F5F5F5"/>
<path d="M11.7809 3.58003L11.9183 3.99206L12.3526 3.99536C12.4088 3.99585 12.4321 4.06757 12.3869 4.10097L12.0375 4.35902L12.1686 4.77309C12.1856 4.82667 12.1245 4.8711 12.0787 4.83834L11.7254 4.58578L11.3721 4.83834C11.3263 4.87103 11.2653 4.82667 11.2822 4.77309L11.4133 4.35902L11.0639 4.10097C11.0187 4.0675 11.042 3.99585 11.0982 3.99536L11.5325 3.99206L11.6699 3.58003C11.6876 3.52673 11.7631 3.52673 11.7809 3.58003Z" fill="#F5F5F5"/>
<path d="M11.7809 5.73538L11.9183 6.14741L12.3526 6.15071C12.4088 6.1512 12.4321 6.22292 12.3869 6.25632L12.0375 6.51437L12.1686 6.92844C12.1856 6.98202 12.1245 7.02645 12.0787 6.99369L11.7254 6.74112L11.3721 6.99369C11.3263 7.02638 11.2653 6.98202 11.2822 6.92844L11.4133 6.51437L11.0639 6.25632C11.0187 6.22285 11.042 6.1512 11.0982 6.15071L11.5325 6.14741L11.6699 5.73538C11.6876 5.68208 11.7631 5.68208 11.7809 5.73538Z" fill="#F5F5F5"/>
<path d="M11.7809 7.89081L11.9183 8.30284L12.3526 8.30614C12.4088 8.30664 12.4321 8.37836 12.3869 8.41175L12.0375 8.6698L12.1686 9.08387C12.1856 9.13745 12.1245 9.18189 12.0787 9.14912L11.7254 8.89656L11.3721 9.14912C11.3263 9.18181 11.2653 9.13745 11.2822 9.08387L11.4133 8.6698L11.0639 8.41175C11.0187 8.37828 11.042 8.30664 11.0982 8.30614L11.5325 8.30284L11.6699 7.89081C11.6876 7.83744 11.7631 7.83744 11.7809 7.89081Z" fill="#F5F5F5"/>
<path d="M11.7809 10.0462L11.9183 10.4582L12.3526 10.4615C12.4088 10.462 12.4321 10.5337 12.3869 10.5671L12.0375 10.8252L12.1686 11.2392C12.1856 11.2928 12.1245 11.3372 12.0787 11.3045L11.7254 11.0519L11.3721 11.3045C11.3263 11.3372 11.2653 11.2928 11.2822 11.2392L11.4133 10.8252L11.0639 10.5671C11.0187 10.5336 11.042 10.462 11.0982 10.4615L11.5325 10.4582L11.6699 10.0462C11.6876 9.99273 11.7631 9.99273 11.7809 10.0462Z" fill="#F5F5F5"/>
<path d="M13.4537 2.48139L13.5911 2.89342L14.0254 2.89673C14.0817 2.89722 14.105 2.96894 14.0597 3.00234L13.7104 3.26038L13.8414 3.67445C13.8584 3.72803 13.7973 3.77247 13.7516 3.7397L13.3982 3.48714L13.0449 3.7397C12.9992 3.7724 12.9382 3.72803 12.9551 3.67445L13.0861 3.26038L12.7368 3.00234C12.6915 2.96887 12.7148 2.89722 12.7711 2.89673L13.2054 2.89342L13.3428 2.48139C13.3605 2.4281 13.436 2.4281 13.4537 2.48139Z" fill="#F5F5F5"/>
<path d="M13.4537 4.63683L13.5911 5.04886L14.0254 5.05216C14.0817 5.05265 14.105 5.12437 14.0597 5.15777L13.7104 5.41582L13.8414 5.82989C13.8584 5.88347 13.7973 5.9279 13.7516 5.89514L13.3982 5.64258L13.0449 5.89514C12.9992 5.92783 12.9382 5.88354 12.9551 5.82989L13.0861 5.41582L12.7368 5.15777C12.6915 5.1243 12.7148 5.05265 12.7711 5.05216L13.2054 5.04886L13.3428 4.63683C13.3605 4.58346 13.436 4.58346 13.4537 4.63683Z" fill="#F5F5F5"/>
<path d="M13.4537 6.79218L13.5911 7.20421L14.0254 7.20751C14.0817 7.208 14.105 7.27972 14.0597 7.31312L13.7104 7.57117L13.8414 7.98524C13.8584 8.03881 13.7973 8.08325 13.7516 8.05049L13.3982 7.79792L13.0449 8.05049C12.9992 8.08318 12.9382 8.03881 12.9551 7.98524L13.0861 7.57117L12.7368 7.31312C12.6915 7.27965 12.7148 7.208 12.7711 7.20751L13.2054 7.20421L13.3428 6.79218C13.3605 6.73881 13.436 6.73881 13.4537 6.79218Z" fill="#F5F5F5"/>
<path d="M13.4537 8.94753L13.5911 9.35957L14.0254 9.36287C14.0817 9.36336 14.105 9.43508 14.0597 9.46848L13.7104 9.72653L13.8414 10.1406C13.8584 10.1942 13.7973 10.2386 13.7516 10.2058L13.3982 9.95328L13.0449 10.2058C12.9992 10.2385 12.9382 10.1942 12.9551 10.1406L13.0861 9.72653L12.7368 9.46848C12.6915 9.43501 12.7148 9.36336 12.7711 9.36287L13.2054 9.35957L13.3428 8.94753C13.3605 8.89424 13.436 8.89424 13.4537 8.94753Z" fill="#F5F5F5"/>
<path d="M15.1268 1.42467L15.2642 1.8367L15.6985 1.84C15.7548 1.8405 15.7781 1.91221 15.7328 1.94561L15.3835 2.20366L15.5145 2.61773C15.5315 2.67131 15.4704 2.71574 15.4247 2.68298L15.0713 2.43042L14.718 2.68298C14.6723 2.71567 14.6113 2.67131 14.6282 2.61773L14.7592 2.20366L14.4098 1.94561C14.3646 1.91214 14.3879 1.8405 14.4442 1.84L14.8785 1.8367L15.0159 1.42467C15.0336 1.3713 15.109 1.3713 15.1268 1.42467Z" fill="#F5F5F5"/>
<path d="M15.1268 3.58003L15.2642 3.99206L15.6985 3.99536C15.7548 3.99585 15.7781 4.06757 15.7328 4.10097L15.3835 4.35902L15.5145 4.77309C15.5315 4.82667 15.4704 4.8711 15.4247 4.83834L15.0713 4.58578L14.718 4.83834C14.6723 4.87103 14.6113 4.82667 14.6282 4.77309L14.7592 4.35902L14.4098 4.10097C14.3646 4.0675 14.3879 3.99585 14.4442 3.99536L14.8785 3.99206L15.0159 3.58003C15.0336 3.52673 15.109 3.52673 15.1268 3.58003Z" fill="#F5F5F5"/>
<path d="M15.1268 5.73538L15.2642 6.14741L15.6985 6.15071C15.7548 6.1512 15.7781 6.22292 15.7328 6.25632L15.3835 6.51437L15.5145 6.92844C15.5315 6.98202 15.4704 7.02645 15.4247 6.99369L15.0713 6.74112L14.718 6.99369C14.6723 7.02638 14.6113 6.98202 14.6282 6.92844L14.7592 6.51437L14.4098 6.25632C14.3646 6.22285 14.3879 6.1512 14.4442 6.15071L14.8785 6.14741L15.0159 5.73538C15.0336 5.68208 15.109 5.68208 15.1268 5.73538Z" fill="#F5F5F5"/>
<path d="M15.1268 7.89081L15.2642 8.30284L15.6985 8.30614C15.7548 8.30664 15.7781 8.37836 15.7328 8.41175L15.3835 8.6698L15.5145 9.08387C15.5315 9.13745 15.4704 9.18189 15.4247 9.14912L15.0713 8.89656L14.718 9.14912C14.6723 9.18181 14.6113 9.13745 14.6282 9.08387L14.7592 8.6698L14.4098 8.41175C14.3646 8.37828 14.3879 8.30664 14.4442 8.30614L14.8785 8.30284L15.0159 7.89081C15.0336 7.83744 15.109 7.83744 15.1268 7.89081Z" fill="#F5F5F5"/>
<path d="M15.1268 10.0462L15.2642 10.4582L15.6985 10.4615C15.7548 10.462 15.7781 10.5337 15.7328 10.5671L15.3835 10.8252L15.5145 11.2392C15.5315 11.2928 15.4704 11.3372 15.4247 11.3045L15.0713 11.0519L14.718 11.3045C14.6723 11.3372 14.6113 11.2928 14.6282 11.2392L14.7592 10.8252L14.4098 10.5671C14.3646 10.5336 14.3879 10.462 14.4442 10.4615L14.8785 10.4582L15.0159 10.0462C15.0336 9.99273 15.109 9.99273 15.1268 10.0462Z" fill="#F5F5F5"/>
</svg>
