<svg width="240" height="49" viewBox="0 0 240 49" fill="none" xmlns="http://www.w3.org/2000/svg">
<g filter="url(#filter0_d_2093_623)">
<path d="M12.0155 0.618784L21.056 11.7182V21.7735L14.6813 29.6243L21.056 37.6105V49H15.1256V39.8149L10.8178 34.3425L5.93046 40.2597V49H0V0.618784H12.0155ZM5.93046 30.9586L15.1256 19.5691V13.942L9.19511 6.53591H5.93046V30.9586Z" fill="white"/>
<path d="M25.499 49V18.0608L39.736 0.618784H46.5551V49.0193H40.6246V28.8895L31.4295 40.279V49.0193H25.499V49ZM31.4295 20.3039V30.8039L40.6246 19.5497V8.89503L31.4295 20.2845V20.3039Z" fill="white"/>
<path d="M61.6806 16.3011L72.9427 30.0691L57.5274 49.0193H50.9981V8.60497L57.5274 0.618784H65.5248L72.0541 8.60497V21.3287L66.1236 13.9227V10.674L61.5261 5.04696L56.9285 10.674V40.279L65.235 30.0691L61.6806 25.6215V16.3011Z" fill="white"/>
<path d="M84.2048 0.618784L92.5113 10.9834V0.754143H98.4417V49H92.5113V20.2845L83.3162 9.03039V49H77.3857V0.618784H84.2048Z" fill="white"/>
<path d="M102.885 49V18.0608L117.122 0.618784H123.941V49.0193H118.01V28.8895L108.815 40.279V49.0193H102.885V49ZM108.815 20.3039V30.8039L118.01 19.5497V8.89503L108.815 20.2845V20.3039Z" fill="white"/>
<path d="M140.399 0.618784L149.44 11.7182V21.7735L143.065 29.6243L149.44 37.6105V49H143.509V39.8149L139.202 34.3425L134.314 40.2597V49H128.384V0.618784H140.399ZM134.334 30.9586L143.529 19.5691V13.942L137.598 6.53591H134.334V30.9586Z" fill="white"/>
<path d="M173.876 0H181.294L188.113 8.29558V40.2597L181.449 48.4006H173.741L167.077 40.2597V8.29558L173.896 0H173.876ZM182.164 10.5L177.566 4.87293L172.968 10.5V38.1713L177.566 43.7983L182.164 38.1713V10.5Z" fill="white"/>
<path d="M192.556 48.4006V17.4613L206.793 0H213.612V48.4006H207.682V28.2707L198.487 39.6602V48.4006H192.556ZM198.487 19.6851V30.1851L207.682 18.9309V8.27624L198.487 19.6657V19.6851Z" fill="white"/>
<path d="M218.055 48.4006V0H223.986V10.2099L232.292 0H240L231.848 10.0552L239.111 18.9309V48.3812H233.181V21L227.985 14.6381L223.986 19.6657V48.3812H218.055V48.4006Z" fill="white"/>
</g>
<defs>
<filter id="filter0_d_2093_623" x="-227" y="-227" width="708" height="517.019" filterUnits="userSpaceOnUse" color-interpolation-filters="sRGB">
<feFlood flood-opacity="0" result="BackgroundImageFix"/>
<feColorMatrix in="SourceAlpha" type="matrix" values="0 0 0 0 0 0 0 0 0 0 0 0 0 0 0 0 0 0 127 0" result="hardAlpha"/>
<feOffset dx="7" dy="7"/>
<feGaussianBlur stdDeviation="117"/>
<feColorMatrix type="matrix" values="0 0 0 0 0.262745 0 0 0 0 0.368627 0 0 0 0 0.615686 0 0 0 1 0"/>
<feBlend mode="normal" in2="BackgroundImageFix" result="effect1_dropShadow_2093_623"/>
<feBlend mode="normal" in="SourceGraphic" in2="effect1_dropShadow_2093_623" result="shape"/>
</filter>
</defs>
</svg>
